<svg width="143" height="158" viewBox="0 0 143 158" fill="none" xmlns="http://www.w3.org/2000/svg">
<path fill-rule="evenodd" clip-rule="evenodd" d="M10 2C5.58172 2 2 5.58172 2 10V126C2 130.418 5.58171 134 9.99999 134H53.975L71.3 156L88.625 134H132.6C137.018 134 140.6 130.418 140.6 126V10C140.6 5.58172 137.018 2 132.6 2H10Z" fill="#F7F0F5" fill-opacity="0.25"/>
<path d="M53.975 134L55.5463 132.763C55.167 132.281 54.5879 132 53.975 132V134ZM71.3 156L69.7287 157.237C70.1079 157.719 70.687 158 71.3 158C71.9129 158 72.492 157.719 72.8713 157.237L71.3 156ZM88.625 134V132C88.0121 132 87.433 132.281 87.0537 132.763L88.625 134ZM4 10C4 6.68629 6.68629 4 10 4V0C4.47715 0 0 4.47715 0 10H4ZM4 126V10H0V126H4ZM9.99999 132C6.68629 132 4 129.314 4 126H0C0 131.523 4.47714 136 9.99999 136V132ZM53.975 132H9.99999V136H53.975V132ZM52.4037 135.237L69.7287 157.237L72.8713 154.763L55.5463 132.763L52.4037 135.237ZM72.8713 157.237L90.1963 135.237L87.0537 132.763L69.7287 154.763L72.8713 157.237ZM132.6 132H88.625V136H132.6V132ZM138.6 126C138.6 129.314 135.914 132 132.6 132V136C138.123 136 142.6 131.523 142.6 126H138.6ZM138.6 10V126H142.6V10H138.6ZM132.6 4C135.914 4 138.6 6.68629 138.6 10H142.6C142.6 4.47716 138.123 0 132.6 0V4ZM10 4H132.6V0H10V4Z" fill="#F7F0F5"/>
<rect width="18.1176" height="14.2314" rx="2" transform="matrix(4.37114e-08 -1 -1 -4.37114e-08 101.238 76.7354)" fill="#F7F0F5" fill-opacity="0.25" stroke="#F7F0F5" stroke-width="4" stroke-linecap="square"/>
<rect width="18.1176" height="14.2314" rx="2" transform="matrix(4.37114e-08 -1 -1 -4.37114e-08 78.0068 76.7354)" fill="#F7F0F5" fill-opacity="0.25" stroke="#F7F0F5" stroke-width="4" stroke-linecap="square"/>
<rect width="18.1176" height="14.2314" rx="2" transform="matrix(4.37114e-08 -1 -1 -4.37114e-08 54.7754 76.7354)" fill="#F7F0F5" fill-opacity="0.25" stroke="#F7F0F5" stroke-width="4" stroke-linecap="square"/>
</svg>
