<svg width="25" height="25" viewBox="0 0 25 25" fill="none" xmlns="http://www.w3.org/2000/svg">
<path fill-rule="evenodd" clip-rule="evenodd" d="M12.5 25C19.4036 25 25 19.4036 25 12.5C25 5.59644 19.4036 0 12.5 0C5.59644 0 0 5.59644 0 12.5C0 15.6536 1.16786 18.5345 3.09468 20.7337L0.961538 25L12.5 25ZM5.46687 12.5C5.46687 11.8362 6.00499 11.2981 6.6688 11.2981H11.2361V6.73077C11.2361 6.06697 11.7742 5.52885 12.438 5.52885C13.1018 5.52885 13.6399 6.06697 13.6399 6.73077V11.2981H18.2073C18.8711 11.2981 19.4092 11.8362 19.4092 12.5C19.4092 13.1638 18.8711 13.7019 18.2073 13.7019H13.6399V18.2692C13.6399 18.933 13.1018 19.4712 12.438 19.4712C11.7742 19.4712 11.2361 18.933 11.2361 18.2692V13.7019H6.6688C6.00499 13.7019 5.46687 13.1638 5.46687 12.5Z" fill="#F7F0F5"/>
</svg>
