<svg width="27" height="27" viewBox="0 0 27 27" fill="none" xmlns="http://www.w3.org/2000/svg">
<path fill-rule="evenodd" clip-rule="evenodd" d="M7.7697 1.31112C4.61784 2.15486 2.15596 4.61439 1.31142 7.76324C0.466882 10.9121 1.36799 14.2719 3.67532 16.577C5.98264 18.8821 9.34563 19.7824 12.4975 18.9386C13.7786 18.5957 14.9457 17.9858 15.9365 17.1713L16.29 17.5244C15.9855 18.3016 16.1475 19.219 16.7759 19.847L22.2979 25.3653C23.1448 26.2115 24.5179 26.2116 25.3649 25.3655C26.2116 24.5195 26.2117 23.148 25.3651 22.3019L19.843 16.7836C19.2142 16.1552 18.2952 15.9934 17.5169 16.2981L17.1659 15.9474C17.9917 14.9521 18.6096 13.7772 18.9558 12.4865C19.8003 9.33767 18.8992 5.97788 16.5919 3.67276C14.2846 1.36764 10.9216 0.467391 7.7697 1.31112ZM15.3699 15.346C16.2705 14.4445 16.9382 13.3107 17.2796 12.0378C17.9636 9.48724 17.2337 6.76582 15.3648 4.89867C13.4959 3.03152 10.7718 2.30232 8.21884 2.98574C5.66584 3.66917 3.67172 5.66139 2.98764 8.21196C2.30356 10.7625 3.03346 13.4839 4.90239 15.3511C6.77132 17.2182 9.49535 17.9474 12.0483 17.264C13.3128 16.9255 14.4401 16.266 15.3391 15.3767C15.3437 15.3719 15.3483 15.3671 15.353 15.3624L15.3541 15.3614C15.3593 15.3562 15.3646 15.3511 15.3699 15.346ZM18.0031 18.6212C17.8341 18.4523 17.834 18.1785 18.0029 18.0095C18.1721 17.8405 18.4466 17.8403 18.6157 18.0093L24.1378 23.5276C24.3069 23.6966 24.3069 23.9706 24.1378 24.1396C23.9686 24.3086 23.6943 24.3086 23.5252 24.1395L18.0031 18.6212ZM18.0029 18.0095C17.664 18.3481 17.1147 18.3481 16.7758 18.0095L16.29 17.5244L18.0029 18.0095Z" fill="#F5F5F5" fill-opacity="0.25"/>
<path d="M16.29 17.5244L15.9365 17.1713C14.9457 17.9858 13.7786 18.5957 12.4975 18.9386C9.34563 19.7824 5.98264 18.8821 3.67532 16.577C1.36799 14.2719 0.466882 10.9121 1.31142 7.76324C2.15596 4.61439 4.61784 2.15486 7.7697 1.31112C10.9216 0.467391 14.2846 1.36764 16.5919 3.67276C18.8992 5.97788 19.8003 9.33767 18.9558 12.4865C18.6096 13.7772 17.9917 14.9521 17.1659 15.9474L17.5169 16.2981C18.2952 15.9934 19.2142 16.1552 19.843 16.7836L25.3651 22.3019C26.2117 23.148 26.2116 24.5195 25.3649 25.3655C24.5179 26.2116 23.1448 26.2115 22.2979 25.3653L16.7759 19.847C16.1475 19.219 15.9855 18.3016 16.29 17.5244ZM16.29 17.5244L16.7758 18.0095C17.1147 18.3481 17.664 18.3481 18.0029 18.0095M16.29 17.5244L18.0029 18.0095M18.0029 18.0095C17.834 18.1785 17.8341 18.4523 18.0031 18.6212L23.5252 24.1395C23.6943 24.3086 23.9686 24.3086 24.1378 24.1396C24.3069 23.9706 24.3069 23.6966 24.1378 23.5276L18.6157 18.0093C18.4466 17.8403 18.1721 17.8405 18.0029 18.0095ZM15.3699 15.346C16.2705 14.4445 16.9382 13.3107 17.2796 12.0378C17.9636 9.48724 17.2337 6.76582 15.3648 4.89867C13.4959 3.03152 10.7718 2.30232 8.21884 2.98574C5.66584 3.66917 3.67171 5.66139 2.98764 8.21196C2.30356 10.7625 3.03346 13.4839 4.90239 15.3511C6.77132 17.2182 9.49534 17.9474 12.0483 17.264C13.3128 16.9255 14.4401 16.266 15.3391 15.3767C15.3437 15.3719 15.3483 15.3671 15.353 15.3624L15.3541 15.3614C15.3593 15.3562 15.3646 15.3511 15.3699 15.346Z" stroke="#F7F0F5" stroke-linecap="round" stroke-linejoin="round"/>
</svg>
