<svg width="42" height="42" viewBox="0 0 42 42" fill="none" xmlns="http://www.w3.org/2000/svg">
<path fill-rule="evenodd" clip-rule="evenodd" d="M32.771 22.7889C34.2451 22.0519 34.2451 19.9482 32.771 19.2112L9.84316 7.74727C8.51336 7.08236 6.94873 8.04935 6.94873 9.53612L6.94873 17.8496L19.5487 20.9996L6.94873 24.1496L6.94873 32.464C6.94873 33.9508 8.51336 34.9177 9.84316 34.2528L32.771 22.7889Z" fill="#5F5F5F"/>
<path d="M32.771 19.2112L33.6654 17.4223H33.6654L32.771 19.2112ZM32.771 22.7889L31.8766 21.0001V21.0001L32.771 22.7889ZM9.84316 7.74727L8.94873 9.53612L9.84316 7.74727ZM6.94873 17.8496H4.94873C4.94873 18.7673 5.57333 19.5673 6.46366 19.7899L6.94873 17.8496ZM19.5487 20.9996L20.0338 22.9399C20.9241 22.7173 21.5487 21.9173 21.5487 20.9996C21.5487 20.0819 20.9241 19.2819 20.0338 19.0593L19.5487 20.9996ZM6.94873 24.1496L6.46366 22.2093C5.57333 22.4319 4.94873 23.2319 4.94873 24.1496H6.94873ZM9.84316 34.2528L10.7376 36.0417L10.7376 36.0417L9.84316 34.2528ZM31.8766 21.0001L31.8766 21.0001L33.6654 24.5778C36.6137 23.1037 36.6136 18.8964 33.6654 17.4223L31.8766 21.0001ZM8.94873 9.53612L31.8766 21.0001L33.6654 17.4223L10.7376 5.95841L8.94873 9.53612ZM8.94873 9.53612L8.94873 9.53612L10.7376 5.95841C8.07798 4.62861 4.94873 6.56259 4.94873 9.53612H8.94873ZM8.94873 17.8496V9.53612H4.94873L4.94873 17.8496H8.94873ZM6.46366 19.7899L19.0637 22.9399L20.0338 19.0593L7.4338 15.9093L6.46366 19.7899ZM19.0637 19.0593L6.46366 22.2093L7.4338 26.0899L20.0338 22.9399L19.0637 19.0593ZM8.94873 32.464L8.94873 24.1496H4.94873L4.94873 32.464H8.94873ZM8.94873 32.464H8.94873H4.94873C4.94873 35.4375 8.07798 37.3715 10.7376 36.0417L8.94873 32.464ZM31.8766 21.0001L8.94873 32.464L10.7376 36.0417L33.6654 24.5778L31.8766 21.0001Z" fill="#5F5F5F"/>
</svg>
